# xmcd
#
# Track frame offsets: 
#        150
#        13375
#        23671
#        39765
#        53736
#        64050
#        73984
#        83124
#        94336
#        103645
#        114788
#        123958
#
# Disc length: 1786 seconds
#
# Revision: 0
# Processed by: cddbd v1.5.2PL0 Copyright (c) Steve Scherf et al.
# Submitted via: ExactAudioCopy v0.99pb4
#
DISCID=9606f80c
DTITLE=劉鳳屏 - 歲月留聲 - 19 - 快回頭望一望
DYEAR=2004
DGENRE=國語流行曲
TTITLE0=快回頭望一望
TTITLE1=山前山後百花開
TTITLE2=水長流
TTITLE3=送君
TTITLE4=不如不嫁了
TTITLE5=我的心裡有個他
TTITLE6=姑娘的心意
TTITLE7=媽媽您在何方
TTITLE8=為甚麼
TTITLE9=寂靜的夜
TTITLE10=處處吻
TTITLE11=討厭的電話鈴
EXTD=
EXTT0=
EXTT1=
EXTT2=
EXTT3=
EXTT4=
EXTT5=
EXTT6=
EXTT7=
EXTT8=
EXTT9=
EXTT10=
EXTT11=
PLAYORDER=
